<svg width="1440" height="800" viewBox="0 0 1440 800" fill="none" xmlns="http://www.w3.org/2000/svg">
<g clip-path="url(#clip0_14_79)">
<rect width="1440" height="800" fill="url(#paint0_linear_14_79)"/>
<path opacity="0.4" d="M1012.69 618.701C1017.06 613.774 1023.46 610.744 1029.63 607.79C1041.58 602.196 1053.48 596.562 1065.42 590.929C1077.77 585.101 1090.21 579.274 1103.56 575.648C1126.1 569.502 1151.14 570.036 1172.8 578.415C1194.45 586.794 1212.41 603.293 1219.83 623.331C1228.58 647.049 1221.35 675.198 1200.91 692.08C1187.88 702.878 1169.75 708.399 1152.05 707.792L1152.01 707.791C1149.65 707.644 1147.38 707.458 1145.16 707.233C1074.19 700.344 1068.81 665.993 1031.33 659.818C997.762 654.325 1004.03 628.474 1012.69 618.701Z" fill="white"/>
<g opacity="0.4" filter="url(#filter0_f_14_79)">
<path d="M511.478 332.663C508.561 298.182 524.169 272.054 544.719 257.312C565.367 242.519 590.905 237.118 615.014 228.972C670.934 209.954 719.945 175.065 758.372 126.953C778.006 102.402 795.005 74.448 817.801 54.3121C840.596 34.1762 870.707 22.1699 904.21 33.0097C937.712 43.8495 973.944 82.6556 981.453 124.297C986.476 152.171 978.646 175.717 970.914 197.56C970.493 198.881 969.975 200.253 969.532 201.77C947.383 265.283 941.98 340.832 952.434 420.796C953.279 427.152 953.854 433.465 954.16 439.734C957.207 496.004 936.633 546.208 896.539 558.454C864.007 568.415 823.973 553.078 786.091 538.09C746.735 522.401 707.282 506.762 667.926 491.072C635.567 478.167 602.348 464.793 572.133 439.2C541.865 413.268 514.854 372.048 511.478 332.663Z" fill="white"/>
</g>
<path opacity="0.4" d="M76.6622 740.151C39.3647 708.364 39.126 643.063 61.4727 594.251C100.378 509.01 201.086 461.833 279.718 491.969C343.359 516.406 390.662 582.994 459.017 587.446C479.849 588.852 500.861 584.179 521.722 583.657C527.674 583.598 536.491 583.635 546.122 585.22C602.466 593.793 612.922 677.172 561.053 707.628C560.341 708.049 559.451 708.575 558.608 708.955C522.869 728.194 481.684 722.95 444.358 713.273C407.031 703.595 369.811 689.915 330.955 693.802C286.449 698.166 245.662 724.691 203.504 742.712C161.479 760.775 110.652 769.118 76.6622 740.151Z" fill="white"/>
<g opacity="0.4" filter="url(#filter1_f_14_79)">
<path d="M432.265 -90.1982C483.951 -37.8519 502.507 82.2918 418.115 148.247C385.115 173.939 358.476 184.789 333.506 189.973C257.825 205.636 188.652 248.925 134.62 310.976C113.467 335.389 90.9586 357.649 64.4392 372.77C-19.7431 420.668 -135.136 371.463 -167.519 273.755C-199.902 176.047 -141.91 52.415 -50.96 25.0023C-22.3599 16.354 7.70515 16.1767 36.4166 8.04881C109.936 -13.0709 164.197 -83.7992 234.122 -117.31C299.449 -148.627 380.73 -142.532 432.265 -90.1982Z" fill="white"/>
</g>
<g opacity="0.4" filter="url(#filter2_f_14_79)">
<path d="M1548.18 376.995C1462.17 360.359 1376.16 343.723 1290.02 327.23C1250.07 319.552 1207.31 310.168 1178.94 277.75C1141.41 234.668 1142.17 166.135 1151.08 106.843C1159.09 52.9555 1172.07 -0.932579 1197.9 -47.2848C1223.73 -93.6371 1263.55 -132.169 1311.14 -144.539C1367.51 -159.184 1426.54 -135.866 1476.04 -102.31C1570.83 -37.9006 1642.59 66.8895 1675.67 185.045C1682.8 210.496 1686.87 236.8 1687 263.389C1687.13 305.334 1678.98 345.998 1648.95 368.037C1620.2 389.365 1582.28 383.535 1548.18 376.995Z" fill="white"/>
</g>
</g>
<defs>
<filter id="filter0_f_14_79" x="455.127" y="-27.0709" width="583.913" height="644.699" filterUnits="userSpaceOnUse" color-interpolation-filters="sRGB">
<feFlood flood-opacity="0" result="BackgroundImageFix"/>
<feBlend mode="normal" in="SourceGraphic" in2="BackgroundImageFix" result="shape"/>
<feGaussianBlur stdDeviation="28" result="effect1_foregroundBlur_14_79"/>
</filter>
<filter id="filter1_f_14_79" x="-192.584" y="-152.368" width="684.816" height="559.664" filterUnits="userSpaceOnUse" color-interpolation-filters="sRGB">
<feFlood flood-opacity="0" result="BackgroundImageFix"/>
<feBlend mode="normal" in="SourceGraphic" in2="BackgroundImageFix" result="shape"/>
<feGaussianBlur stdDeviation="8" result="effect1_foregroundBlur_14_79"/>
</filter>
<filter id="filter2_f_14_79" x="1138" y="-157" width="557" height="548" filterUnits="userSpaceOnUse" color-interpolation-filters="sRGB">
<feFlood flood-opacity="0" result="BackgroundImageFix"/>
<feBlend mode="normal" in="SourceGraphic" in2="BackgroundImageFix" result="shape"/>
<feGaussianBlur stdDeviation="4" result="effect1_foregroundBlur_14_79"/>
</filter>
<linearGradient id="paint0_linear_14_79" x1="720" y1="87.3315" x2="720" y2="845.902" gradientUnits="userSpaceOnUse">
<stop stop-color="#FFCE33"/>
<stop offset="1" stop-color="white"/>
</linearGradient>
<clipPath id="clip0_14_79">
<rect width="1440" height="800" fill="white"/>
</clipPath>
</defs>
</svg>
