<svg width="93" height="67" viewBox="0 0 93 67" fill="none" xmlns="http://www.w3.org/2000/svg">
<path d="M45 66.5006C63.2254 66.5006 78 51.7902 78 33.6439C78 15.4976 63.2254 0.787109 45 0.787109C26.7746 0.787109 12 15.4976 12 33.6439C12 51.7902 26.7746 66.5006 45 66.5006Z" fill="white" stroke="#333333"/>
<path d="M23.0908 27.5946C20.6955 25.9261 17.5142 26.7103 12.5156 29.0234C13.3981 21.4371 18.6454 10.6075 26.9531 6.43421C35.6377 2.07158 46.8454 4.23957 45.9981 12.1872C45.1731 19.9228 36.875 14.4371 34.3411 21.4992C31.8073 28.5613 43.4793 30.5478 35.3069 35.4229C27.1344 40.2981 26.684 30.0976 23.0908 27.5946Z" fill="#1A1A1A" stroke="#333333"/>
<path d="M54.8003 21.7967C51.9528 20.0941 55.0296 15.3376 64.4746 7.14075C69.2529 9.19429 78 18.0178 78 35.6974C78 50.8739 63.4126 63.2579 58.4062 63.4199C56.0214 63.4971 60.4687 58.9672 60.4687 50.3602C60.4687 45.7581 51.9286 44.5386 51.2136 36.3015C50.4984 28.0643 64.6965 29.8617 67.438 29.8617C70.1794 29.8617 71.3079 22.8386 66.0958 21.7967C60.8838 20.7549 59.0714 24.3507 54.8003 21.7967Z" fill="#FFCE33" stroke="#333333" stroke-linecap="round"/>
<path d="M39.3693 54.2149C37.563 52.4691 39.4443 47.4169 33.8351 45.2177C28.1073 42.972 21.368 46.8307 16.2687 49.3694C19.7344 59.8263 45.8683 74.7147 45.6102 58.7032C45.5542 55.2275 41.1754 55.9606 39.3693 54.2149Z" fill="#1A1A1A" stroke="#333333" stroke-linecap="round"/>
<path d="M10.7687 37.0248C3.91516 41.6191 1.46475 44.9378 2.39801 48.0136C4.3103 54.316 25.1656 52.8609 48.9797 44.7635C72.7938 36.6661 90.5488 24.9928 88.6365 18.6903C87.5845 15.2235 83.625 13.9846 73.7695 15.0269" stroke="#1A1A1A"/>
<path d="M89.5139 19.2663C91.4262 25.5687 72.7943 37.6269 48.9802 45.7243C25.1661 53.8217 3.5656 55.2936 1.65332 48.9912" stroke="white"/>
<circle cx="77" cy="53.7871" r="13" fill="#1A1A1A"/>
<path d="M76.619 60.1801V58.5211H78.306V60.1801H76.619ZM76.619 48.9801V47.3211H78.306V48.9801H76.619ZM77.501 58.9971C76.7917 58.9971 76.157 58.8664 75.597 58.6051C75.037 58.3438 74.5773 57.9751 74.218 57.4991C73.8633 57.0231 73.637 56.4584 73.539 55.8051L75.205 55.5391C75.3357 56.1131 75.6157 56.5704 76.045 56.9111C76.479 57.2471 76.997 57.4151 77.599 57.4151C78.1777 57.4151 78.6537 57.2798 79.027 57.0091C79.4003 56.7338 79.587 56.3861 79.587 55.9661C79.587 55.6721 79.4983 55.4341 79.321 55.2521C79.1437 55.0654 78.859 54.9114 78.467 54.7901L76.038 54.0341C74.624 53.5954 73.917 52.7368 73.917 51.4581C73.917 50.8608 74.0593 50.3404 74.344 49.8971C74.6333 49.4491 75.0393 49.1061 75.562 48.8681C76.0847 48.6254 76.7007 48.5064 77.41 48.5111C78.068 48.5158 78.6537 48.6348 79.167 48.8681C79.685 49.1014 80.1143 49.4374 80.455 49.8761C80.8003 50.3148 81.0453 50.8421 81.19 51.4581L79.461 51.7731C79.3957 51.4418 79.2673 51.1501 79.076 50.8981C78.8847 50.6461 78.6443 50.4501 78.355 50.3101C78.0657 50.1701 77.7437 50.0954 77.389 50.0861C77.0483 50.0814 76.7427 50.1351 76.472 50.2471C76.2013 50.3544 75.9867 50.5084 75.828 50.7091C75.6693 50.9051 75.59 51.1268 75.59 51.3741C75.59 51.6494 75.6997 51.8851 75.919 52.0811C76.143 52.2771 76.4953 52.4451 76.976 52.5851L78.789 53.1101C79.6617 53.3621 80.2893 53.7051 80.672 54.1391C81.0593 54.5684 81.253 55.1401 81.253 55.8541C81.253 56.4794 81.0967 57.0278 80.784 57.4991C80.4713 57.9704 80.0327 58.3391 79.468 58.6051C78.9033 58.8664 78.2477 58.9971 77.501 58.9971Z" fill="white"/>
<path d="M70.32 42.7871L73.72 47.9871" stroke="white"/>
<path d="M81.0001 59.7871L84.5001 64.7871" stroke="white"/>
</svg>
