<svg width="117" height="87" viewBox="0 0 117 87" fill="none" xmlns="http://www.w3.org/2000/svg">
<path d="M1.99924 0.960942C1.97767 0.409078 1.51281 -0.0208082 0.960942 0.000763059C0.409078 0.0223343 -0.0208082 0.487195 0.000763059 1.03906L1.99924 0.960942ZM31.5698 47.7758L32.5209 48.0847L31.5698 47.7758ZM117 78.503L106.094 74.7101L108.262 86.0517L117 78.503ZM30.6187 47.467C29.3335 51.4247 29.1612 55.0267 29.9479 58.2817C30.7342 61.5353 32.4628 64.3764 34.8776 66.839C39.6823 71.7389 47.2535 75.1933 55.8334 77.5549C73.0159 82.2843 94.7709 82.7699 108.277 81.1862L108.044 79.1998C94.7356 80.7603 73.2473 80.2736 56.3642 75.6266C47.9113 73.3 40.7442 69.9652 36.3056 65.4387C34.0988 63.1882 32.5795 60.6569 31.8919 57.8118C31.2046 54.9681 31.3322 51.7452 32.5209 48.0847L30.6187 47.467ZM0.000763059 1.03906C0.810331 21.7505 3.67486 33.5522 7.51447 39.9408C9.45088 43.1628 11.6673 45.0614 14.0374 45.9871C16.4019 46.9106 18.799 46.8187 21.0147 46.2822C23.2208 45.7481 25.2985 44.7606 27.0608 43.8349C28.8936 42.8722 30.2662 42.0495 31.2872 41.6715C31.5258 41.5831 31.7074 41.5346 31.8409 41.5142C31.9775 41.4932 32.0175 41.5088 31.9996 41.5037C31.9603 41.4924 31.9068 41.4582 31.876 41.4159C31.8579 41.391 31.8894 41.4195 31.9128 41.5731C31.9628 41.901 31.9348 42.5036 31.725 43.5155C31.5199 44.5043 31.1605 45.7986 30.6187 47.467L32.5209 48.0847C33.073 46.3845 33.4571 45.0123 33.6833 43.9216C33.9047 42.854 33.9956 41.9641 33.89 41.2717C33.8356 40.9151 33.7208 40.5515 33.4924 40.238C33.2514 39.9073 32.9238 39.6881 32.5512 39.5812C31.8858 39.3903 31.1665 39.5834 30.5927 39.7959C29.4107 40.2336 27.786 41.1949 26.1308 42.0643C24.4051 42.9708 22.5039 43.8638 20.5441 44.3384C18.5937 44.8106 16.6376 44.8555 14.765 44.1242C12.898 43.395 10.9935 41.847 9.2287 38.9106C5.6659 32.9825 2.80677 21.6204 1.99924 0.960942L0.000763059 1.03906Z" fill="black"/>
</svg>
