<?xml version="1.0"?>
<svg width="1199" height="305" xmlns="http://www.w3.org/2000/svg" xmlns:svg="http://www.w3.org/2000/svg">
 <defs>
  <linearGradient id="paint0_linear_14_316" x1="0.5" x2="0.5" y1="-0.44" y2="1.28">
   <stop stop-color="white"/>
   <stop offset="1" stop-color="#FFC718"/>
  </linearGradient>
  <linearGradient id="paint1_linear_14_316" x1="0.5" x2="0.5" y1="-0.35" y2="1">
   <stop stop-color="white"/>
   <stop offset="1" stop-color="#FFCE33"/>
  </linearGradient>
 </defs>
 <g class="layer">
  <title>Layer 1</title>
  <rect fill="url(#paint0_linear_14_316)" height="291" id="svg_1" rx="32" width="1200" x="-1" y="14"/>
  <rect fill="#FFCE33" height="291" id="svg_2" rx="32" width="1200" x="-1" y="14"/>
  <rect fill="url(#paint1_linear_14_316)" height="291" id="svg_3" rx="32" width="1200" x="-1" y="1"/>
  <path d="m1293.65,659.07c-32.03,5.38 -57.68,-7.22 -73.06,-25.32c-15.44,-18.18 -22.47,-41.67 -31.95,-63.6c-22.12,-50.87 -58.55,-94.06 -106.53,-126.32c-24.49,-16.49 -51.95,-30.25 -72.55,-50.03c-20.6,-19.79 -34.17,-47.05 -26.62,-79.23c7.55,-32.18 41.04,-69.07 79.41,-79.29c25.69,-6.85 48.32,-1.33 69.35,4.23c1.27,0.29 2.6,0.67 4.05,0.97c61.13,15.85 132.22,15.1 206.21,-0.82c5.88,-1.28 11.74,-2.3 17.58,-3.07c52.4,-7.18 100.96,8.22 115.52,44.8c11.83,29.68 0.59,68.32 -10.5,104.92c-11.63,38.04 -23.21,76.16 -34.84,114.19c-9.56,31.27 -19.5,63.39 -41.11,93.63c-21.91,30.32 -58.38,58.76 -94.96,64.94z" fill="white" id="svg_4" opacity="0.4"/>
  <path d="m1291.3,31.11c-86.12,29.41 -172.25,58.82 -258.42,88.42c-39.98,13.7 -83.36,27.31 -125.69,12.73c-56.09,-19.48 -90.81,-81.69 -113.42,-139.77c-20.62,-52.74 -36.77,-108.05 -37.43,-163.19c-0.67,-55.15 15.32,-110.47 51.82,-146.19c43.24,-42.32 108.51,-51.77 170.46,-47.06c118.72,9.14 237.55,66.6 328.42,156.09c19.58,19.28 36.84,40.9 50.69,64.82c21.79,37.77 35.46,78.65 19.78,114.03c-14.9,34.09 -52.09,48.41 -86.21,60.12z" fill="white" id="svg_5" opacity="0.4"/>
  <path d="m746.18,661.51c-30.57,20.56 -62.96,19.55 -87.33,8.05c-24.46,-11.56 -42.72,-32.53 -62.79,-50.74c-46.66,-42.2 -104.52,-69.76 -169.19,-80.62c-33.02,-5.57 -67.83,-6.93 -98.38,-17.72c-30.54,-10.8 -57.31,-32.61 -64.59,-69.39c-7.27,-36.78 10.06,-90.57 44.92,-119.1c23.33,-19.09 49.3,-23.99 73.62,-28.09c1.45,-0.29 3,-0.52 4.64,-0.89c70.57,-12.25 143.66,-46.3 212.64,-97.4c5.48,-4.07 11.05,-7.87 16.73,-11.4c50.77,-31.94 108.14,-38.77 140.31,-7.8c26.12,25.12 32.6,70.3 38.28,113.31c5.79,44.73 11.68,89.53 17.47,134.27c4.76,36.79 9.53,74.62 1.37,115.97c-8.45,41.58 -32.8,88.04 -67.7,111.55z" fill="white" id="svg_6" opacity="0.4" transform="matrix(1 0 0 1 0 0)"/>
  <path d="m389.35,-38.56c-0.56,32.47 -17.62,55.39 -38.23,67.21c-20.69,11.86 -45.07,14.49 -68.36,19.81c-54.06,12.46 -103.16,40.4 -143.64,81.69c-20.68,21.07 -39.22,45.56 -62.44,62.2c-23.21,16.65 -52.48,25.01 -82.75,11.71c-30.27,-13.29 -60.42,-52.96 -63.47,-92.55c-2.04,-26.5 7.52,-47.75 16.82,-67.41c0.52,-1.2 1.13,-2.43 1.69,-3.8c26.74,-57.21 38.98,-127.24 36.83,-202.9c-0.19,-6.02 -0.12,-11.96 0.19,-17.85c2.51,-52.83 26.51,-97.76 65.13,-105.4c31.34,-6.22 67.28,11.89 101.24,29.47c35.28,18.38 70.64,36.72 105.92,55.1c29,15.11 58.76,30.74 84.55,57.5c25.81,27.08 47.12,68.13 46.52,105.22z" fill="white" id="svg_7" opacity="0.4"/>
 </g>
</svg>