<svg width="148" height="41" viewBox="0 0 148 41" fill="none" xmlns="http://www.w3.org/2000/svg">
<path d="M10.0658 20.9567H4.78869V24.0688H9.65987V27.181H4.78869V33.9465H1V17.7092H10.0658V20.9567Z" fill="#1A1A1A" stroke="#1A1A1A" stroke-width="0.6"/>
<path d="M17.2371 17.8447V34.082H13.4484V17.8447H17.2371Z" fill="#1A1A1A" stroke="#1A1A1A" stroke-width="0.6"/>
<path d="M21.432 34.082V17.8447H24.6794L33.4746 28.2636V17.8447H37.2633V34.082H34.0158L25.2207 23.5278V34.082H21.432Z" fill="#1A1A1A" stroke="#1A1A1A" stroke-width="0.6"/>
<path d="M46.5997 17.8447C48.7647 17.8447 51.0649 18.1154 52.9593 20.145C54.4477 21.4981 55.2596 23.3925 55.2596 25.9634C55.2596 28.5343 54.4477 30.4286 53.0946 31.6464C50.7943 33.9467 48.0881 34.082 46.735 34.082H41.4579V17.8447H46.5997ZM45.2466 30.8345H46.1938C47.0056 30.8345 48.6294 30.6992 49.8471 29.7521C50.659 29.0755 51.4709 27.5871 51.4709 25.8281C51.4709 24.069 50.7943 22.9865 50.1178 22.31C48.9 21.0922 47.2763 20.9569 46.1938 20.9569H45.2466V30.8345Z" fill="#1A1A1A" stroke="#1A1A1A" stroke-width="0.6"/>
<path d="M100.994 33.5408C99.506 34.2173 98.4235 34.3526 97.4763 34.3526C94.4995 34.3526 92.4698 33.2701 91.1167 32.0524C89.6283 30.6993 88.5458 28.5343 88.5458 25.8281C88.5458 23.2572 89.6283 21.0922 91.1167 19.7391C92.6051 18.386 94.6348 17.4388 97.2057 17.4388C98.2882 17.4388 99.506 17.7094 101.13 18.386V22.7159C100.318 21.9041 99.1 20.9569 97.341 20.9569C95.9879 20.9569 94.9054 21.3628 94.0935 22.1747C93.1464 22.9866 92.6051 24.3397 92.6051 25.9634C92.6051 27.5871 93.2817 28.8049 93.9582 29.4815C94.3642 29.8874 95.4466 30.8346 97.4763 30.8346C98.4235 30.8346 99.7766 30.5639 101.265 29.2108V33.5408H100.994Z" fill="#1A1A1A" stroke="#1A1A1A" stroke-width="0.6"/>
<path d="M118.99 19.7391C120.479 21.2275 121.561 23.3925 121.561 25.8281C121.561 27.9931 120.749 30.158 118.99 31.9171C117.502 33.4055 115.472 34.3527 112.766 34.3527C109.654 34.3527 107.624 33.1349 106.407 31.9171C104.783 30.564 103.836 28.399 103.836 25.9634C103.836 23.6631 104.918 21.2275 106.407 19.7391C107.489 18.6566 109.519 17.3035 112.766 17.3035C115.202 17.4389 117.367 18.2507 118.99 19.7391ZM109.113 22.31C108.436 22.9866 107.624 24.2044 107.624 25.9634C107.624 27.4518 108.166 28.6696 109.113 29.6168C110.195 30.564 111.278 30.9699 112.631 30.9699C114.255 30.9699 115.472 30.2933 116.284 29.6168C116.961 28.9402 117.637 27.8578 117.637 25.9634C117.637 24.3397 116.961 22.9866 116.284 22.31C115.472 21.4982 114.255 20.9569 112.766 20.9569C111.278 20.8216 110.06 21.3629 109.113 22.31Z" fill="#1A1A1A" stroke="#1A1A1A" stroke-width="0.6"/>
<path d="M126.433 17.8448L129.951 28.6697L133.469 17.8448H136.04L139.558 28.6697L143.076 17.8448H147L141.452 34.0821H138.34L134.957 24.2044L131.575 34.0821H128.462L122.915 17.8448H126.433Z" fill="#1A1A1A" stroke="#1A1A1A" stroke-width="0.6"/>
<path d="M65.6782 11.6203C63.7838 11.2144 61.8895 10.8084 60.4011 9.59064C59.3186 8.77877 59.048 7.56098 60.1304 6.74912C60.9423 6.20788 61.7542 5.66663 62.8366 5.2607C66.2194 4.04291 69.7375 3.77229 73.5262 3.9076C76.0971 4.04291 78.668 4.31353 81.1036 5.2607C81.9154 5.53132 82.7273 5.93725 83.4038 6.4785C84.6216 7.29036 84.7569 8.50815 83.6745 9.45533C82.7273 10.2672 80.9682 11.0791 78.9386 11.485C78.5327 10.2672 77.1796 9.86126 75.8264 9.59064C73.1202 9.04939 70.414 9.18471 67.8431 9.86126C67.5725 9.99657 67.3019 9.99657 67.1666 10.1319C66.3547 10.4025 65.6782 10.8084 65.6782 11.6203Z" fill="#1A1A1A"/>
<path d="M65.2722 3.36636C65.4075 2.96042 65.5429 2.6898 65.6782 2.55449C66.0841 2.14856 66.49 1.60732 67.0313 1.3367C70.414 -0.422338 73.7968 -0.422338 77.1796 1.20139C77.8561 1.60732 78.5327 2.14856 78.8033 3.09573C74.2027 2.41918 69.8728 2.41918 65.2722 3.36636Z" fill="#1A1A1A"/>
<path d="M78.1269 35.1644H66.0843L63.9193 40.0355H54.8535L66.3549 13.2441C67.0315 11.6203 68.7905 10.6732 70.6849 10.6732H73.797C75.6914 10.6732 77.4504 11.7556 78.1269 13.3794L89.493 40.0355H80.2919L78.1269 35.1644Z" fill="white"/>
<path d="M66.505 20.1711C66.4848 20.1753 66.465 20.1798 66.4452 20.1848C66.1158 19.4365 66.4901 19.0624 66.4901 19.0624C66.4901 19.0624 65.9486 19.1977 65.6781 19.7389C65.4584 20.1784 65.5952 20.5287 65.6546 20.6448L65.6249 20.6729C64.5866 20.42 64.3204 20.553 64.0544 20.6861C64.0544 20.6981 64.0524 20.7123 64.0491 20.7282C64.0455 20.7443 64.0409 20.7622 64.0356 20.7814L64.0346 20.7852C63.987 20.9619 63.9087 21.2523 64.4604 21.3626C64.7412 21.4188 64.9986 21.3118 65.2037 21.1675C65.1046 21.3091 65.0359 21.4295 65.0015 21.4979C64.8661 21.7686 64.325 22.3098 63.919 22.5804C63.3779 22.851 63.1073 23.3923 64.0544 24.0688C64.4214 24.4357 66.5562 24.3605 67.0639 24.3426C67.1181 24.3407 67.1538 24.3395 67.1666 24.3395C67.1792 24.3145 67.2079 24.2779 67.2496 24.2322C67.3718 24.6327 67.638 25.3901 68.1114 26.2183C67.5085 26.4265 66.3887 26.9377 65.8132 27.9928C65.0015 29.4812 65.5426 30.2931 65.5426 30.2931C65.5426 30.2931 65.5668 30.2691 65.6041 30.2354C65.618 30.2228 65.6335 30.209 65.6507 30.1945C65.6708 30.1773 65.6926 30.1592 65.7158 30.1415C65.7468 30.1176 65.7792 30.0943 65.8112 30.0748C65.8618 30.044 65.9107 30.0225 65.9486 30.0225C66.0259 29.9452 66.1032 30.0445 66.1806 30.1439C66.2384 30.2185 66.2965 30.2931 66.3546 30.2931C66.3649 30.2931 66.3728 30.2854 66.3791 30.2708C66.3834 30.2603 66.3873 30.2462 66.3903 30.2289C66.3923 30.2179 66.394 30.2056 66.3956 30.1921C66.4009 30.1477 66.4045 30.09 66.4085 30.0222C66.4336 29.592 66.4828 28.7516 67.1663 28.2634C67.8597 27.7683 68.6251 27.563 69.0391 27.5416C69.1983 27.7267 69.3697 27.9077 69.5541 28.0815C69.1917 28.3554 68.604 28.8601 68.2489 29.4813C67.5723 30.5637 67.8429 32.1875 67.9783 32.0522C68.1137 31.9168 68.2489 31.9168 68.3843 31.9168C68.4679 31.9168 68.4996 31.9685 68.5435 32.0398C68.5709 32.084 68.603 32.1357 68.6549 32.1875C68.6872 32.2198 68.681 32.1672 68.6674 32.0537C68.6241 31.6918 68.5075 30.7111 69.3314 29.8872C69.8028 29.4159 70.4711 29.1416 70.8332 29.0185C71.6462 29.465 72.6243 29.7519 73.7964 29.7519C75.0864 29.7519 76.2307 29.566 77.1901 29.2436C77.4378 29.5231 77.9819 30.1111 78.6677 30.699C79.4797 31.3756 81.2388 31.9168 81.3739 31.7815C81.4545 31.7008 81.2467 31.524 81.0944 31.3943C80.991 31.3065 80.9134 31.2403 80.9679 31.2403C81.1034 31.2403 81.5093 30.9697 81.5093 30.9697C81.5093 30.9494 81.476 30.9261 81.4165 30.8988C81.4003 30.8913 81.3822 30.8836 81.362 30.8755L81.3075 30.8546C81.2606 30.8371 81.2071 30.8182 81.1476 30.7978L81.0145 30.7525C80.5074 30.5809 79.7228 30.3153 79.2091 29.8872C78.7582 29.4362 78.5577 28.9852 78.4685 28.6734C78.8051 28.4781 79.1024 28.2613 79.3571 28.027C79.6429 28.23 80.0687 28.4598 80.6974 28.6694C82.3213 29.2106 83.133 28.94 83.133 28.8047C82.9979 28.6694 82.8625 28.5341 82.8625 28.3988C82.8625 28.3427 82.9322 28.3099 83.0138 28.2715C83.129 28.2171 83.2685 28.1514 83.2685 27.9929C83.2685 27.9777 83.2377 27.9711 83.1822 27.9689C83.1274 27.9667 83.0481 27.9689 82.9497 27.9717C82.3194 27.9895 80.9051 28.0294 80.1017 27.0813C80.6293 26.0835 80.5226 24.9198 79.6148 23.7982C78.5194 22.3374 77.3622 22.6631 76.0603 23.0295C75.4326 23.2062 74.7712 23.3923 74.0673 23.3923C72.0376 23.5276 70.4136 22.9864 69.196 22.3098C69.1679 22.2859 69.1398 22.2648 69.1117 22.2464C69.0827 22.2273 69.0536 22.2111 69.0242 22.1976C69.006 22.1891 68.9878 22.1818 68.9697 22.1754C68.9482 22.168 68.9267 22.1619 68.9053 22.1571C68.8134 22.0838 68.7113 21.9953 68.604 21.8905C68.5604 21.8479 68.5158 21.8026 68.4709 21.7545C68.6852 21.8731 68.93 21.9419 69.196 21.9039C69.9852 21.7911 69.9287 21.3964 69.888 21.1114C69.8801 21.0544 69.8725 21.0018 69.8725 20.9567C69.8725 20.719 69.4553 20.5858 68.1626 20.74C68.2479 20.5879 68.3169 20.3502 68.2489 20.0095C68.1137 19.333 67.5723 19.1977 67.5723 19.1977C67.5723 19.1977 67.8171 19.6877 67.3748 20.3181C67.2241 20.211 67.0312 20.1448 66.7606 20.1448C66.6731 20.1448 66.5879 20.1541 66.505 20.1711Z" fill="#1A1A1A"/>
</svg>
