<svg width="77" height="78" viewBox="0 0 77 78" fill="none" xmlns="http://www.w3.org/2000/svg">
<rect x="17.2246" y="1.37903" width="40.392" height="76.032" rx="6.534" fill="white" stroke="black" stroke-width="1.188"/>
<rect x="4.15662" y="48.8991" width="41.58" height="20.196" rx="4.158" fill="black" stroke="black" stroke-width="1.188"/>
<path d="M10.6902 55.4331H35.6382" stroke="white" stroke-width="2.376" stroke-linecap="round"/>
<path d="M10.6902 62.5616H24.9462" stroke="white" stroke-width="2.376" stroke-linecap="round"/>
<circle cx="57.0227" cy="28.1089" r="15.444" fill="#FFCE33"/>
<path d="M56.1648 33.8333H59.0688C59.0688 34.2057 58.9158 34.5628 58.6435 34.8261C58.3712 35.0894 58.0019 35.2373 57.6168 35.2373C57.2317 35.2373 56.8623 35.0894 56.59 34.8261C56.3177 34.5628 56.1648 34.2057 56.1648 33.8333ZM51.1379 31.9962C51.0829 31.8679 51.0686 31.7267 51.0966 31.5905C51.1247 31.4543 51.1939 31.3292 51.2954 31.231L52.5347 30.0327V26.1113C52.5371 24.9309 52.9784 23.7907 53.7781 22.8988C54.5778 22.007 55.6826 21.423 56.8908 21.2535V20.4953C56.8908 20.3092 56.9672 20.1306 57.1034 19.9989C57.2396 19.8673 57.4242 19.7933 57.6168 19.7933C57.8093 19.7933 57.994 19.8673 58.1301 19.9989C58.2663 20.1306 58.3428 20.3092 58.3428 20.4953V21.2535C59.5509 21.423 60.6557 22.007 61.4554 22.8988C62.2551 23.7907 62.6965 24.9309 62.6988 26.1113V30.0327L63.9381 31.231C64.0396 31.3292 64.1087 31.4543 64.1367 31.5904C64.1647 31.7266 64.1503 31.8677 64.0954 31.996C64.0404 32.1242 63.9474 32.2338 63.8281 32.311C63.7087 32.3881 63.5684 32.4293 63.4248 32.4293H51.8087C51.6652 32.4294 51.5248 32.3882 51.4054 32.3111C51.286 32.234 51.1929 32.1244 51.1379 31.9962Z" fill="black"/>
<path d="M26.1346 0.785034H48.7066C48.7066 3.40949 46.5791 5.53703 43.9546 5.53703H30.8866C28.2622 5.53703 26.1346 3.40949 26.1346 0.785034Z" fill="black"/>
</svg>
