<svg width="79" height="78" viewBox="0 0 79 78" fill="none" xmlns="http://www.w3.org/2000/svg">
<path d="M1.40815 19.0059C1.40815 8.83616 9.65238 0.591925 19.8222 0.591925H57.8381C68.0079 0.591925 76.2521 8.83616 76.2521 19.0059V47.5179C76.2521 62.9366 63.7528 75.4359 48.3341 75.4359H19.8222C9.65238 75.4359 1.40815 67.1917 1.40815 57.0219V19.0059Z" fill="white"/>
<path d="M1.40815 19.0059C1.40815 8.83616 9.65238 0.591925 19.8222 0.591925H57.8381C68.0079 0.591925 76.2521 8.83616 76.2521 19.0059V47.5179C76.2521 62.9366 63.7528 75.4359 48.3341 75.4359H19.8222C9.65238 75.4359 1.40815 67.1917 1.40815 57.0219V19.0059Z" stroke="black" stroke-width="1.188"/>
<path d="M1.40815 19.0059C1.40815 8.83616 9.65238 0.591925 19.8222 0.591925H57.8381C68.0079 0.591925 76.2521 8.83616 76.2521 19.0059V47.5179C76.2521 62.9366 63.7528 75.4359 48.3341 75.4359H19.8222C9.65238 75.4359 1.40815 67.1917 1.40815 57.0219V19.0059Z" stroke="black" stroke-opacity="0.2" stroke-width="1.188"/>
<path d="M1.40815 19.0059C1.40815 8.83616 9.65238 0.591925 19.8222 0.591925H57.8381C68.0079 0.591925 76.2521 8.83616 76.2521 19.0059V47.5179C76.2521 62.9366 63.7528 75.4359 48.3341 75.4359H19.8222C9.65238 75.4359 1.40815 67.1917 1.40815 57.0219V19.0059Z" fill="white"/>
<path d="M1.40815 19.0059C1.40815 8.83616 9.65238 0.591925 19.8222 0.591925H57.8381C68.0079 0.591925 76.2521 8.83616 76.2521 19.0059V47.5179C76.2521 62.9366 63.7528 75.4359 48.3341 75.4359H19.8222C9.65238 75.4359 1.40815 67.1917 1.40815 57.0219V19.0059Z" stroke="black" stroke-width="1.188"/>
<path d="M1.40815 19.0059C1.40815 8.83616 9.65238 0.591925 19.8222 0.591925H57.8381C68.0079 0.591925 76.2521 8.83616 76.2521 19.0059V47.5179C76.2521 62.9366 63.7528 75.4359 48.3341 75.4359H19.8222C9.65238 75.4359 1.40815 67.1917 1.40815 57.0219V19.0059Z" stroke="black" stroke-opacity="0.2" stroke-width="1.188"/>
<path d="M5.56614 20.1939C5.56614 11.6645 12.4807 4.74995 21.0101 4.74995H56.6502C65.1796 4.74995 72.0941 11.6645 72.0941 20.194V46.33C72.0941 60.1084 60.9245 71.2779 47.1461 71.2779H21.0101C12.4807 71.2779 5.56614 64.3634 5.56614 55.834V20.1939Z" fill="white" stroke="#FFCE33" stroke-width="2.376"/>
<path d="M23.0056 42.8562V47.2274H18.6344V42.8562H23.0056ZM18.6344 55.9698H23.0056V51.5986H18.6344V55.9698ZM23.0056 47.2274V51.5986H27.3768V47.2274H23.0056ZM31.748 34.1138H27.3768V38.485H23.0056V42.8562H31.748V34.1138ZM18.6344 34.1138V38.485H23.0056V34.1138H18.6344ZM31.748 51.5986H27.3768V55.9698H38.3048V51.5986H36.1192V47.2274H31.748V51.5986ZM40.4904 18.8146H36.1192V23.1858H40.4904V18.8146ZM36.1192 34.1138H40.4904V27.557H36.1192V34.1138ZM20.82 29.7426C20.2403 29.7426 19.6844 29.5123 19.2745 29.1024C18.8646 28.6926 18.6344 28.1366 18.6344 27.557V18.8146C18.6344 18.2349 18.8646 17.679 19.2745 17.2691C19.6844 16.8592 20.2403 16.629 20.82 16.629H29.5624C30.142 16.629 30.698 16.8592 31.1078 17.2691C31.5177 17.679 31.748 18.2349 31.748 18.8146V27.557C31.748 28.1366 31.5177 28.6926 31.1078 29.1024C30.698 29.5123 30.142 29.7426 29.5624 29.7426H20.82ZM23.0056 25.3714H27.3768V21.0002H23.0056V25.3714ZM57.9752 18.8146V36.2994H53.604V29.7426H47.0472C46.4675 29.7426 45.9116 29.5123 45.5018 29.1024C45.0919 28.6926 44.8616 28.1366 44.8616 27.557V18.8146C44.8616 18.2349 45.0919 17.679 45.5018 17.2691C45.9116 16.8592 46.4675 16.629 47.0472 16.629H55.7896C56.3693 16.629 56.9252 16.8592 57.3351 17.2691C57.745 17.679 57.9752 18.2349 57.9752 18.8146ZM53.604 21.0002H49.2328V25.3714H53.604V21.0002ZM57.9752 45.0418V53.7842C57.9752 54.3639 57.745 54.9198 57.3351 55.3297C56.9252 55.7396 56.3693 55.9698 55.7896 55.9698H47.0472C46.4675 55.9698 45.9116 55.7396 45.5018 55.3297C45.0919 54.9198 44.8616 54.3639 44.8616 53.7842V47.2274H36.1192V38.485H40.4904V42.8562H42.676V34.1138H47.0472V42.8562H55.7896C56.3693 42.8562 56.9252 43.0865 57.3351 43.4963C57.745 43.9062 57.9752 44.4621 57.9752 45.0418ZM53.604 47.2274H49.2328V51.5986H53.604V47.2274Z" fill="black"/>
<circle cx="64" cy="62.7871" r="15" fill="white"/>
<circle cx="64" cy="62.7871" r="12.5" fill="#FFCE33" stroke="#1A1A1A"/>
<path d="M59.976 67.9971C59.4673 67.9971 58.989 67.8921 58.541 67.6821C58.0977 67.4721 57.715 67.1804 57.393 66.8071C57.071 66.4338 56.84 65.9998 56.7 65.5051L58.534 65.0151C58.5947 65.2531 58.702 65.4584 58.856 65.6311C59.0147 65.8038 59.1967 65.9391 59.402 66.0371C59.612 66.1304 59.8267 66.1771 60.046 66.1771C60.3353 66.1771 60.599 66.1071 60.837 65.9671C61.0797 65.8271 61.271 65.6381 61.411 65.4001C61.5557 65.1621 61.628 64.8984 61.628 64.6091C61.628 64.3198 61.5557 64.0561 61.411 63.8181C61.271 63.5801 61.0797 63.3911 60.837 63.2511C60.599 63.1111 60.3353 63.0411 60.046 63.0411C59.6913 63.0411 59.402 63.1018 59.178 63.2231C58.954 63.3398 58.786 63.4518 58.674 63.5591L57.064 63.0691L57.372 57.7071H62.874V59.4851H58.422L59.094 58.8551L58.884 62.3131L58.562 61.9211C58.814 61.7158 59.101 61.5664 59.423 61.4731C59.745 61.3798 60.046 61.3331 60.326 61.3331C60.9607 61.3331 61.5183 61.4754 61.999 61.7601C62.4843 62.0401 62.8623 62.4274 63.133 62.9221C63.4083 63.4121 63.546 63.9744 63.546 64.6091C63.546 65.2438 63.3803 65.8178 63.049 66.3311C62.7177 66.8398 62.2813 67.2458 61.74 67.5491C61.1987 67.8478 60.6107 67.9971 59.976 67.9971ZM65.2101 67.7871L65.2241 57.7071H67.1561V63.8671L69.7181 60.2271H72.0701L69.3401 64.0071L72.2521 67.7871H69.7741L67.1561 64.1471V67.7871H65.2101Z" fill="#1A1A1A"/>
</svg>
